<svg xmlns="http://www.w3.org/2000/svg" width="18" height="18" viewBox="0 0 18 18">
  <g id="icon_photo" transform="translate(0 0)">
    <g id="그룹_2907" data-name="그룹 2907" transform="translate(0 0)">
      <g id="그룹_2906" data-name="그룹 2906">
        <g id="그룹_2905" data-name="그룹 2905">
          <g id="그룹_2904" data-name="그룹 2904">
            <g id="그룹_2903" data-name="그룹 2903">
              <path id="패스_2129" data-name="패스 2129" d="M213.193,391.849h-15a1.5,1.5,0,0,0-1.5,1.5v15a1.5,1.5,0,0,0,1.5,1.5h15a1.5,1.5,0,0,0,1.5-1.5v-15A1.5,1.5,0,0,0,213.193,391.849Zm0,16.5h-15v-15h15Z" transform="translate(-196.693 -391.849)" fill="#fff"/>
            </g>
          </g>
        </g>
      </g>
    </g>
    <g id="그룹_2912" data-name="그룹 2912" transform="translate(0.724 7.017)">
      <g id="그룹_2911" data-name="그룹 2911" transform="translate(0)">
        <g id="그룹_2910" data-name="그룹 2910">
          <g id="그룹_2909" data-name="그룹 2909">
            <g id="그룹_2908" data-name="그룹 2908">
              <path id="패스_2130" data-name="패스 2130" d="M198.186,409.5l4.2-4.044a1.548,1.548,0,0,1,2.128,0l10.221,9.835H199.691a1.477,1.477,0,0,1-1.505-1.448Z" transform="translate(-198.186 -405.031)" fill="#fff"/>
            </g>
          </g>
        </g>
      </g>
    </g>
    <g id="그룹_2917" data-name="그룹 2917" transform="translate(12.143 8.299)">
      <g id="그룹_2916" data-name="그룹 2916">
        <g id="그룹_2915" data-name="그룹 2915">
          <g id="그룹_2914" data-name="그룹 2914">
            <g id="그룹_2913" data-name="그룹 2913">
              <path id="패스_2131" data-name="패스 2131" d="M225.581,410.31v4.474l-5.133-5.132,1.216-1.216a1.442,1.442,0,0,1,2.041,0Z" transform="translate(-220.448 -408.012)" fill="#fff"/>
            </g>
          </g>
        </g>
      </g>
    </g>
  </g>
</svg>
