<svg xmlns="http://www.w3.org/2000/svg" width="32" height="27" viewBox="0 0 32 27">
  <g id="icon_paper_plane" transform="translate(-875.395 -2250.699)">
    <path id="패스_2121" data-name="패스 2121" d="M1179.616,2424.238l2.456,8.662,1.049.98,15.826-21.042-1.07-.858-19.569,8.093Z" transform="translate(-295.612 -157.529)" fill="#c6d8e9"/>
    <path id="패스_2122" data-name="패스 2122" d="M1383.973,2946.68c-.19,0-3.518,1.268-3.518,1.268l-.619,7.284a.259.259,0,0,0,.428.217l5.539-4.846Z" transform="translate(-492.589 -679.123)" fill="#a9c9dd"/>
    <path id="패스_2123" data-name="패스 2123" d="M902.148,2276.362c1.229-5.465,4.007-18.292,5.212-23.865a1.462,1.462,0,0,0-1.932-1.7L876.2,2262.014a1.266,1.266,0,0,0,.076,2.382l7.544,2.336,17.211-11.292c.454-.295.893.206.519.569l-13.7,12.591,11.647,8.761A1.682,1.682,0,0,0,902.148,2276.362Z" transform="translate(0)" fill="#edf6fb"/>
  </g>
</svg>
