<svg xmlns="http://www.w3.org/2000/svg" width="24" height="24" viewBox="0 0 24 24">
  <g id="icon_edit" transform="translate(-110.829 -115.967)">
    <g id="그룹_3026" data-name="그룹 3026" transform="translate(110.829 115.967)">
      <path id="패스_2232" data-name="패스 2232" d="M1392.472,702.689l-2.213-2.213a1.134,1.134,0,0,0-1.6,0l-12.446,12.446a.394.394,0,0,0-.1.181l-1.119,4.377a.394.394,0,0,0,.48.48l4.377-1.119a.391.391,0,0,0,.181-.1l12.446-12.446h0A1.135,1.135,0,0,0,1392.472,702.689Zm-14.607,13.844-1.449-1.45.285-1.114,2.278,2.278Zm11.947-10.7-2.7-2.7.54-.54,2.7,2.7Zm2.1-2.1-1,1-2.7-2.7,1-1a.345.345,0,0,1,.487,0l2.213,2.213A.344.344,0,0,1,1391.913,703.733Z" transform="translate(-1369.569 -699.378)" fill="#0096de"/>
      <path id="패스_2233" data-name="패스 2233" d="M1340.35,717.145h-15.365a4.322,4.322,0,0,1-4.317-4.317V697.462a4.322,4.322,0,0,1,4.317-4.317h9.492a.749.749,0,0,1,0,1.5h-9.492a2.821,2.821,0,0,0-2.818,2.818v15.366a2.821,2.821,0,0,0,2.818,2.818h15.365a2.822,2.822,0,0,0,2.818-2.818v-9.521a.749.749,0,1,1,1.5,0v9.521A4.322,4.322,0,0,1,1340.35,717.145Z" transform="translate(-1320.667 -693.145)" fill="#0096de"/>
    </g>
  </g>
</svg>
